<svg xmlns="http://www.w3.org/2000/svg" viewBox="0 0 900 650" width="900" height="650" font-family="'SF Mono', 'Fira Code', Menlo, Consolas, monospace">
  <!-- Background (matches banner.svg dark navy) -->
  <rect width="900" height="650" rx="10" fill="#0f172a"/>

  <!-- Terminal chrome (three dots) -->
  <g>
    <circle cx="22" cy="22" r="6" fill="#f87171"/>
    <circle cx="42" cy="22" r="6" fill="#eab308"/>
    <circle cx="62" cy="22" r="6" fill="#4ade80"/>
    <text x="450" y="27" text-anchor="middle" font-size="11" fill="#64748b">/codeprobe audit .</text>
    <line x1="0" y1="44" x2="900" y2="44" stroke="#1e293b" stroke-width="1"/>
  </g>

  <!-- Title -->
  <text x="32" y="80" font-size="15" font-weight="700" fill="#4ade80">Code Health Report</text>
  <text x="194" y="80" font-size="15" fill="#94a3b8">— Growth Engine</text>

  <!-- Overall -->
  <text x="32" y="108" font-size="13" fill="#cbd5e1">Overall Health:</text>
  <text x="158" y="108" font-size="13" font-weight="700" fill="#eab308">55/100</text>
  <circle cx="226" cy="104" r="5" fill="#eab308"/>
  <text x="240" y="108" font-size="13" fill="#eab308">Needs Attention</text>

  <!-- Category Scores header -->
  <text x="32" y="144" font-size="12" fill="#64748b" letter-spacing="1.5">CATEGORY SCORES</text>
  <line x1="32" y1="152" x2="868" y2="152" stroke="#1e293b" stroke-width="1"/>

  <!-- Bars: x=32 label, x=172 bar (w=220), x=410 score, x=470 status -->
  <!-- Row spacing: 26px; first row y=172 (text baseline) -->

  <!-- Architecture 91 — green -->
  <text x="32" y="176" font-size="13" fill="#cbd5e1">Architecture</text>
  <rect x="180" y="166" width="220" height="14" rx="3" fill="#1e293b"/>
  <rect x="180" y="166" width="200.2" height="14" rx="3" fill="#4ade80"/>
  <text x="412" y="176" font-size="13" fill="#cbd5e1">91/100</text>
  <circle cx="486" cy="172" r="5" fill="#4ade80"/>
  <text x="500" y="176" font-size="13" fill="#4ade80">Healthy</text>

  <!-- Security 62 — yellow -->
  <text x="32" y="202" font-size="13" fill="#cbd5e1">Security</text>
  <rect x="180" y="192" width="220" height="14" rx="3" fill="#1e293b"/>
  <rect x="180" y="192" width="136.4" height="14" rx="3" fill="#eab308"/>
  <text x="412" y="202" font-size="13" fill="#cbd5e1">62/100</text>
  <circle cx="486" cy="198" r="5" fill="#eab308"/>
  <text x="500" y="202" font-size="13" fill="#eab308">Needs Attention</text>

  <!-- Framework 60 — yellow -->
  <text x="32" y="228" font-size="13" fill="#cbd5e1">Framework</text>
  <rect x="180" y="218" width="220" height="14" rx="3" fill="#1e293b"/>
  <rect x="180" y="218" width="132" height="14" rx="3" fill="#eab308"/>
  <text x="412" y="228" font-size="13" fill="#cbd5e1">60/100</text>
  <circle cx="486" cy="224" r="5" fill="#eab308"/>
  <text x="500" y="228" font-size="13" fill="#eab308">Needs Attention</text>

  <!-- Performance 58 — red -->
  <text x="32" y="254" font-size="13" fill="#cbd5e1">Performance</text>
  <rect x="180" y="244" width="220" height="14" rx="3" fill="#1e293b"/>
  <rect x="180" y="244" width="127.6" height="14" rx="3" fill="#f87171"/>
  <text x="412" y="254" font-size="13" fill="#cbd5e1">58/100</text>
  <circle cx="486" cy="250" r="5" fill="#f87171"/>
  <text x="500" y="254" font-size="13" fill="#f87171">Critical</text>

  <!-- SOLID 55 — red -->
  <text x="32" y="280" font-size="13" fill="#cbd5e1">SOLID</text>
  <rect x="180" y="270" width="220" height="14" rx="3" fill="#1e293b"/>
  <rect x="180" y="270" width="121" height="14" rx="3" fill="#f87171"/>
  <text x="412" y="280" font-size="13" fill="#cbd5e1">55/100</text>
  <circle cx="486" cy="276" r="5" fill="#f87171"/>
  <text x="500" y="280" font-size="13" fill="#f87171">Critical</text>

  <!-- Design Patterns 55 — red -->
  <text x="32" y="306" font-size="13" fill="#cbd5e1">Design Patterns</text>
  <rect x="180" y="296" width="220" height="14" rx="3" fill="#1e293b"/>
  <rect x="180" y="296" width="121" height="14" rx="3" fill="#f87171"/>
  <text x="412" y="306" font-size="13" fill="#cbd5e1">55/100</text>
  <circle cx="486" cy="302" r="5" fill="#f87171"/>
  <text x="500" y="306" font-size="13" fill="#f87171">Critical</text>

  <!-- Code Smells 46 — red -->
  <text x="32" y="332" font-size="13" fill="#cbd5e1">Code Smells</text>
  <rect x="180" y="322" width="220" height="14" rx="3" fill="#1e293b"/>
  <rect x="180" y="322" width="101.2" height="14" rx="3" fill="#f87171"/>
  <text x="412" y="332" font-size="13" fill="#cbd5e1">46/100</text>
  <circle cx="486" cy="328" r="5" fill="#f87171"/>
  <text x="500" y="332" font-size="13" fill="#f87171">Critical</text>

  <!-- Test Quality 28 — red -->
  <text x="32" y="358" font-size="13" fill="#cbd5e1">Test Quality</text>
  <rect x="180" y="348" width="220" height="14" rx="3" fill="#1e293b"/>
  <rect x="180" y="348" width="61.6" height="14" rx="3" fill="#f87171"/>
  <text x="412" y="358" font-size="13" fill="#cbd5e1">28/100</text>
  <circle cx="486" cy="354" r="5" fill="#f87171"/>
  <text x="500" y="358" font-size="13" fill="#f87171">Critical</text>

  <!-- Error Handling 22 — red -->
  <text x="32" y="384" font-size="13" fill="#cbd5e1">Error Handling</text>
  <rect x="180" y="374" width="220" height="14" rx="3" fill="#1e293b"/>
  <rect x="180" y="374" width="48.4" height="14" rx="3" fill="#f87171"/>
  <text x="412" y="384" font-size="13" fill="#cbd5e1">22/100</text>
  <circle cx="486" cy="380" r="5" fill="#f87171"/>
  <text x="500" y="384" font-size="13" fill="#f87171">Critical</text>

  <!-- Codebase Stats header -->
  <text x="32" y="424" font-size="12" fill="#64748b" letter-spacing="1.5">CODEBASE STATS</text>
  <line x1="32" y1="432" x2="868" y2="432" stroke="#1e293b" stroke-width="1"/>

  <text x="32" y="454" font-size="13" fill="#cbd5e1">Files: <tspan fill="#67e8f9">391</tspan></text>
  <text x="420" y="454" font-size="13" fill="#cbd5e1">Total LOC: <tspan fill="#67e8f9">64,146</tspan></text>

  <text x="32" y="476" font-size="13" fill="#cbd5e1">Backend: <tspan fill="#67e8f9">170 py (20,907 LOC)</tspan></text>
  <text x="420" y="476" font-size="13" fill="#cbd5e1">Frontend: <tspan fill="#67e8f9">221 ts/tsx (43,239 LOC)</tspan></text>

  <text x="32" y="498" font-size="13" fill="#cbd5e1">Largest file: <tspan fill="#67e8f9">frontend/app/growth-engine/ads/page.tsx</tspan> <tspan fill="#64748b">(1,979 LOC)</tspan></text>

  <text x="32" y="520" font-size="13" fill="#cbd5e1">Test files: <tspan fill="#eab308">29 / 391 (7.4%)</tspan></text>
  <text x="420" y="520" font-size="13" fill="#cbd5e1">Comment ratio: <tspan fill="#eab308">1.1%</tspan></text>

  <!-- Hot Spots header -->
  <text x="32" y="560" font-size="12" fill="#64748b" letter-spacing="1.5">HOT SPOTS (files needing most attention)</text>
  <line x1="32" y1="568" x2="868" y2="568" stroke="#1e293b" stroke-width="1"/>

  <text x="32" y="590" font-size="13"><tspan fill="#fb923c">1.</tspan> <tspan fill="#67e8f9">frontend/app/growth-engine/ads/page.tsx</tspan> <tspan fill="#94a3b8">— 3 categories flagged (SOLID, Code Smells, Architecture)</tspan></text>

  <text x="32" y="610" font-size="13"><tspan fill="#fb923c">2.</tspan> <tspan fill="#67e8f9">backend/app/routers/agents.py</tspan> <tspan fill="#94a3b8">— 3 categories flagged (SOLID, Architecture, Design Patterns)</tspan></text>

  <text x="32" y="630" font-size="13"><tspan fill="#fb923c">3.</tspan> <tspan fill="#67e8f9">backend/app/services/dependency_resolver.py</tspan> <tspan fill="#94a3b8">— 3 categories flagged (Error Handling, Performance, Patterns)</tspan></text>
</svg>
